<svg xmlns="http://www.w3.org/2000/svg" width="227.919" height="48.107" viewBox="0 0 227.919 48.107"><g transform="translate(-4.687 -2.4)"><g transform="translate(36.071 31.623)" style="isolation:isolate"><path d="M50.118,64.616H41.59l-1.624,3.959H35.6L43.823,50.2h4.162l8.223,18.376H51.742ZM48.8,61.368l-2.944-7.005L42.91,61.368Z" transform="translate(-35.6 -49.895)" fill="#848484"/><path d="M69.577,68.576,66.023,63.5H62.064v5.076H57.8V50.2h7.919a11.007,11.007,0,0,1,4.264.812,5.673,5.673,0,0,1,2.741,2.335A6.647,6.647,0,0,1,73.739,56.9a6.077,6.077,0,0,1-1.015,3.553,6.244,6.244,0,0,1-2.843,2.234l4.162,5.888ZM68.46,54.464a4.632,4.632,0,0,0-2.944-.812H62.064v6.4h3.452a4.84,4.84,0,0,0,2.944-.812A2.684,2.684,0,0,0,69.475,56.9,3.042,3.042,0,0,0,68.46,54.464Z" transform="translate(-35.262 -49.895)" fill="#848484"/><path d="M89.2,59.037H93.06v7.411a12.218,12.218,0,0,1-3.452,1.726,13.4,13.4,0,0,1-3.959.609,10.83,10.83,0,0,1-5.178-1.218,7.845,7.845,0,0,1-3.452-3.35,9.706,9.706,0,0,1-1.32-4.873,8.78,8.78,0,0,1,1.32-4.873,8.99,8.99,0,0,1,3.655-3.35A10.83,10.83,0,0,1,85.852,49.9a11.937,11.937,0,0,1,4.366.812,8.691,8.691,0,0,1,3.35,2.335l-2.741,2.538a6.231,6.231,0,0,0-4.772-2.03,6.526,6.526,0,0,0-3.147.711,5.621,5.621,0,0,0-2.944,5.076,6.2,6.2,0,0,0,.812,3.046,5.384,5.384,0,0,0,2.132,2.132,6.132,6.132,0,0,0,3.046.711,7.419,7.419,0,0,0,3.35-.812l-.1-5.381Z" transform="translate(-34.989 -49.9)" fill="#848484"/><path d="M110.913,65.124v3.452H96.7V50.2h13.909v3.452h-9.645v3.959h8.528v3.35h-8.528v4.264l9.949-.1Z" transform="translate(-34.669 -49.895)" fill="#848484"/><path d="M130.951,50.2V68.576H127.5l-9.137-11.168V68.576H114.2V50.2h3.553l9.137,11.168V50.2Z" transform="translate(-34.403 -49.895)" fill="#848484"/><path d="M138.788,53.652H132.9V50.2h16.041v3.452h-5.888V68.576h-4.264V53.652Z" transform="translate(-34.118 -49.895)" fill="#848484"/><path d="M150.9,50.2h4.264V68.576H150.9Z" transform="translate(-33.844 -49.895)" fill="#848484"/><path d="M176.251,50.2V68.576H172.8l-9.137-11.168V68.576H159.5V50.2h3.553l9.137,11.168V50.2Z" transform="translate(-33.713 -49.895)" fill="#848484"/><path d="M192.418,64.616H183.89l-1.624,3.959H177.9L186.123,50.2h4.162l8.223,18.376h-4.467Zm-1.32-3.249-2.944-7.005-2.944,7.005Z" transform="translate(-33.433 -49.895)" fill="#848484"/></g><g transform="translate(4.687 2.4)"><path d="M21.54,22.974V10.791L15.55,20.842H14.027l-5.99-9.848v11.98H4.687V4.7H7.53l7.208,12.081L21.844,4.7h2.843V22.974Z" transform="translate(-4.687 -2.365)" fill="#848484"/><path d="M38.952,10.322a5.615,5.615,0,0,1,1.624,4.467v8.223H37.53V21.185A3.966,3.966,0,0,1,35.8,22.606a5.84,5.84,0,0,1-2.64.508,6.56,6.56,0,0,1-2.741-.508A4.962,4.962,0,0,1,28.6,21.185a4,4,0,0,1-.609-2.132,3.47,3.47,0,0,1,1.421-2.944c.914-.812,2.437-1.117,4.365-1.117h3.553v-.2a3.054,3.054,0,0,0-.812-2.234,3.807,3.807,0,0,0-2.538-.812,9.217,9.217,0,0,0-2.335.3,7.021,7.021,0,0,0-1.929,1.015l-1.32-2.437a9.193,9.193,0,0,1,2.64-1.32A11.407,11.407,0,0,1,34.282,8.9,5.9,5.9,0,0,1,38.952,10.322Zm-2.944,9.746a2.974,2.974,0,0,0,1.32-1.624V16.819h-3.35c-1.827,0-2.843.609-2.843,1.929a1.773,1.773,0,0,0,.711,1.421,3.446,3.446,0,0,0,1.929.508,3.39,3.39,0,0,0,2.234-.609Z" transform="translate(-4.332 -2.302)" fill="#848484"/><path d="M55.958,9.714a6.246,6.246,0,0,1,2.437,2.437,8.178,8.178,0,0,1,0,7.513A5.648,5.648,0,0,1,55.958,22.1a6.661,6.661,0,0,1-3.655.812,5.393,5.393,0,0,1-4.467-1.929v6.7H44.587V9h3.046V10.83a3.71,3.71,0,0,1,1.929-1.421A6.252,6.252,0,0,1,52.2,8.8,8.2,8.2,0,0,1,55.958,9.714Zm-1.015,9.34a4.674,4.674,0,0,0,0-6.294A4.132,4.132,0,0,0,51.9,11.541a5.066,5.066,0,0,0-2.132.508,3.441,3.441,0,0,0-1.421,1.523,5.38,5.38,0,0,0,0,4.67,3.441,3.441,0,0,0,1.421,1.523,5.456,5.456,0,0,0,2.132.508,4.3,4.3,0,0,0,3.046-1.218Z" transform="translate(-4.079 -2.303)" fill="#848484"/><path d="M72.052,10.321a5.615,5.615,0,0,1,1.624,4.467v8.223H70.63V21.184A3.966,3.966,0,0,1,68.9,22.605a5.84,5.84,0,0,1-2.64.508,6.56,6.56,0,0,1-2.741-.508A4.962,4.962,0,0,1,61.7,21.184a4,4,0,0,1-.609-2.132,3.658,3.658,0,0,1,1.32-2.944c.914-.812,2.437-1.117,4.366-1.117h3.553v-.2a3.053,3.053,0,0,0-.812-2.234,3.807,3.807,0,0,0-2.538-.812,9.218,9.218,0,0,0-2.335.3,5.324,5.324,0,0,0-1.827,1.015l-1.32-2.437a9.193,9.193,0,0,1,2.64-1.32,18.693,18.693,0,0,1,3.35-.3A5.377,5.377,0,0,1,72.052,10.321Zm-2.944,9.746a2.974,2.974,0,0,0,1.32-1.624V16.819h-3.35c-1.827,0-2.843.609-2.843,1.929a1.773,1.773,0,0,0,.711,1.421,4.627,4.627,0,0,0,4.162-.1Z" transform="translate(-3.828 -2.301)" fill="#848484"/><path d="M77.687,4.7h4.162V22.974H77.687Z" transform="translate(-3.575 -2.365)" fill="#848484"/><path d="M98.579,10.226c1.117,1.015,1.624,2.538,1.624,4.67v8.02H96.142V15.505a3,3,0,0,0-.812-2.437A2.829,2.829,0,0,0,93.2,12.053a3.458,3.458,0,0,0-2.437.914,3.714,3.714,0,0,0-.914,2.843v6.9H85.787V8.8h3.858v1.624a6.707,6.707,0,0,1,2.03-1.421,7.626,7.626,0,0,1,2.64-.508A7.118,7.118,0,0,1,98.579,10.226Z" transform="translate(-3.452 -2.307)" fill="#848484"/><path d="M117.226,8.8l-5.888,14.01h-4.162L101.287,8.8h4.162l3.858,9.543L113.368,8.8Z" transform="translate(-3.216 -2.303)" fill="#848484"/><path d="M132.009,17.023H121.451a3.954,3.954,0,0,0,1.32,2.03,5.032,5.032,0,0,0,2.64.812,5.911,5.911,0,0,0,1.929-.3,4.016,4.016,0,0,0,1.523-1.015l2.132,2.335a7.27,7.27,0,0,1-5.787,2.335,9.931,9.931,0,0,1-4.162-.914,6.971,6.971,0,0,1-3.858-6.294,7.9,7.9,0,0,1,.914-3.756,6.362,6.362,0,0,1,2.64-2.538A8.619,8.619,0,0,1,124.6,8.8a9.231,9.231,0,0,1,3.756.812,7.054,7.054,0,0,1,2.64,2.538,8.619,8.619,0,0,1,.914,3.858Zm-9.645-4.569a3.378,3.378,0,0,0-1.117,2.132h6.9a3.315,3.315,0,0,0-3.452-2.944,4.329,4.329,0,0,0-2.335.812Z" transform="translate(-2.973 -2.303)" fill="#848484"/><path d="M140.375,9.108a8.807,8.807,0,0,1,2.843-.508v3.756a7.873,7.873,0,0,1-.914-.1,3.907,3.907,0,0,0-2.741.914,3.891,3.891,0,0,0-1.015,2.944v6.7h-4.061V8.8h3.858v1.929A4.672,4.672,0,0,1,140.375,9.108Z" transform="translate(-2.71 -2.306)" fill="#848484"/><path d="M146.827,22.715a8.615,8.615,0,0,1-2.64-1.117l1.421-2.944a6.6,6.6,0,0,0,2.335.914,11.705,11.705,0,0,0,2.64.3c1.726,0,2.538-.406,2.538-1.32a.785.785,0,0,0-.711-.812,7.908,7.908,0,0,0-2.132-.406,14.226,14.226,0,0,1-2.843-.609,3.924,3.924,0,0,1-1.929-1.218,3.241,3.241,0,0,1-.812-2.437,4.131,4.131,0,0,1,.812-2.437,5.1,5.1,0,0,1,2.234-1.624,10.313,10.313,0,0,1,3.452-.609,13.782,13.782,0,0,1,2.944.3,8.674,8.674,0,0,1,2.437.914l-1.421,2.944a8.045,8.045,0,0,0-4.061-1.015,4.072,4.072,0,0,0-1.929.3,1.292,1.292,0,0,0-.711.914.975.975,0,0,0,.711.914,14.406,14.406,0,0,0,2.234.508c1.117.2,2.03.406,2.843.609a3.924,3.924,0,0,1,1.929,1.218,4.131,4.131,0,0,1,.812,2.437,4.067,4.067,0,0,1-.812,2.335,4.49,4.49,0,0,1-2.335,1.523,10.457,10.457,0,0,1-3.553.609A12.91,12.91,0,0,1,146.827,22.715Z" transform="translate(-2.562 -2.309)" fill="#848484"/><path d="M159.4,6.359a2.268,2.268,0,0,1,0-3.249h0a2.919,2.919,0,0,1,1.827-.711,3.041,3.041,0,0,1,1.827.609,2.159,2.159,0,0,1,.711,1.523,2.88,2.88,0,0,1-.711,1.726,2.919,2.919,0,0,1-1.827.711A2.834,2.834,0,0,1,159.4,6.359Zm-.3,2.538h4.061v14.01h-4.061Z" transform="translate(-2.341 -2.4)" fill="#848484"/><path d="M169.643,22.2a6.619,6.619,0,0,1-2.741-2.538,6.968,6.968,0,0,1-1.015-3.756,6.968,6.968,0,0,1,1.015-3.756,6.023,6.023,0,0,1,2.741-2.538A9.159,9.159,0,0,1,173.7,8.7a8.729,8.729,0,0,1,3.959.914,6.619,6.619,0,0,1,2.741,2.538,6.968,6.968,0,0,1,1.015,3.756,6.968,6.968,0,0,1-1.015,3.756,6.023,6.023,0,0,1-2.741,2.538,8.729,8.729,0,0,1-3.959.914A9.159,9.159,0,0,1,169.643,22.2Zm6.5-3.452a4.323,4.323,0,0,0,0-5.685,3.676,3.676,0,0,0-5.178,0,4.323,4.323,0,0,0,0,5.685,3.524,3.524,0,0,0,2.538,1.015A3.6,3.6,0,0,0,176.141,18.751Z" transform="translate(-2.232 -2.304)" fill="#848484"/><path d="M196.479,10.226c1.117,1.015,1.624,2.538,1.624,4.67v8.02h-4.061V15.505a3,3,0,0,0-.812-2.437,2.493,2.493,0,0,0-2.132-.812,3.458,3.458,0,0,0-2.437.914,3.714,3.714,0,0,0-.914,2.843v6.9h-4.061V8.8h3.858v1.624a6.707,6.707,0,0,1,2.031-1.421,7.626,7.626,0,0,1,2.64-.508A6.547,6.547,0,0,1,196.479,10.226Z" transform="translate(-1.961 -2.307)" fill="#848484"/><path d="M215.306,17.023H204.748a3.578,3.578,0,0,0,1.421,2.03,5.032,5.032,0,0,0,2.64.812,5.911,5.911,0,0,0,1.929-.3,4.017,4.017,0,0,0,1.523-1.015l2.132,2.335a7.27,7.27,0,0,1-5.787,2.335,9.931,9.931,0,0,1-4.162-.914,6.606,6.606,0,0,1-3.756-6.294,7.9,7.9,0,0,1,.914-3.756,6.362,6.362,0,0,1,2.64-2.538A8.619,8.619,0,0,1,208.1,8.8a9.231,9.231,0,0,1,3.756.812,7.054,7.054,0,0,1,2.64,2.538,8.619,8.619,0,0,1,.914,3.858A4.205,4.205,0,0,1,215.306,17.023Zm-9.442-4.569a3.378,3.378,0,0,0-1.117,2.132h6.9a3.315,3.315,0,0,0-3.452-2.944,3.833,3.833,0,0,0-2.335.812Z" transform="translate(-1.702 -2.303)" fill="#848484"/><path d="M219.227,22.715a8.615,8.615,0,0,1-2.64-1.117l1.421-2.944a6.6,6.6,0,0,0,2.335.914,11.7,11.7,0,0,0,2.64.3c1.726,0,2.538-.406,2.538-1.32a.785.785,0,0,0-.711-.812,7.908,7.908,0,0,0-2.132-.406,14.225,14.225,0,0,1-2.843-.609,3.925,3.925,0,0,1-1.929-1.218,3.242,3.242,0,0,1-.812-2.437,4.131,4.131,0,0,1,.812-2.437,5.1,5.1,0,0,1,2.234-1.624,10.313,10.313,0,0,1,3.452-.609,13.782,13.782,0,0,1,2.944.3,8.674,8.674,0,0,1,2.437.914l-1.421,2.944a8.045,8.045,0,0,0-4.061-1.015,4.072,4.072,0,0,0-1.929.3,1.292,1.292,0,0,0-.711.914.975.975,0,0,0,.711.914,14.407,14.407,0,0,0,2.234.508c1.117.2,2.03.406,2.843.609a3.924,3.924,0,0,1,1.929,1.218,4.131,4.131,0,0,1,.812,2.437,4.067,4.067,0,0,1-.812,2.335,4.49,4.49,0,0,1-2.335,1.523,12.754,12.754,0,0,1-7.005.406Z" transform="translate(-1.459 -2.309)" fill="#848484"/></g></g></svg>