<svg xmlns="http://www.w3.org/2000/svg" width="232" height="54.993" viewBox="0 0 232 54.993">
  <g id="logoMIV" transform="translate(5889.104 1422)">
    <g id="Group_88" data-name="Group 88" transform="translate(-5885.104 -1422)">
      <g id="Group_87" data-name="Group 87" transform="translate(-1.101 0)">
        <path id="Path_61" data-name="Path 61" d="M59.046,1075.67h4.593v19.842H59.046Z" transform="translate(-59.046 -1075.67)"/>
        <path id="Path_62" data-name="Path 62" d="M80.8,1081.209a6.746,6.746,0,0,1,1.744,5.046v8.731H78.118v-8.05a3.978,3.978,0,0,0-.794-2.708,2.916,2.916,0,0,0-2.3-.893,3.516,3.516,0,0,0-2.665,1.035,4.28,4.28,0,0,0-.993,3.075v7.54H66.947v-15.25h4.225v1.787a5.877,5.877,0,0,1,2.183-1.489,7.618,7.618,0,0,1,2.864-.524A6.282,6.282,0,0,1,80.8,1081.209Z" transform="translate(-57.96 -1075.144)"/>
        <path id="Path_63" data-name="Path 63" d="M99.336,1079.708l-6.436,15.25H88.336l-6.409-15.25h4.565l4.225,10.374,4.367-10.374Z" transform="translate(-55.9 -1075.116)"/>
        <path id="Path_64" data-name="Path 64" d="M113.447,1088.607h-11.54a3.6,3.6,0,0,0,1.474,2.239,4.886,4.886,0,0,0,2.893.822,5.849,5.849,0,0,0,2.112-.354,5.124,5.124,0,0,0,1.715-1.12l2.353,2.551a7.911,7.911,0,0,1-6.295,2.466,9.958,9.958,0,0,1-4.565-1.006,7.374,7.374,0,0,1-3.062-2.792,7.685,7.685,0,0,1-1.077-4.053,7.789,7.789,0,0,1,1.064-4.04,7.449,7.449,0,0,1,2.92-2.805,9.04,9.04,0,0,1,8.208-.042,7.034,7.034,0,0,1,2.849,2.763,8.246,8.246,0,0,1,1.035,4.181Q113.532,1087.5,113.447,1088.607Zm-10.349-4.9a3.618,3.618,0,0,0-1.247,2.324h7.513a3.656,3.656,0,0,0-1.248-2.31,3.729,3.729,0,0,0-2.494-.865A3.807,3.807,0,0,0,103.1,1083.7Z" transform="translate(-53.766 -1075.144)"/>
        <path id="Path_65" data-name="Path 65" d="M115.776,1094.745a9.682,9.682,0,0,1-2.891-1.177l1.474-3.174a9.279,9.279,0,0,0,2.467,1.062,10.334,10.334,0,0,0,2.835.411q2.807,0,2.807-1.389a.982.982,0,0,0-.766-.935,11.317,11.317,0,0,0-2.353-.482,22.75,22.75,0,0,1-3.091-.651,4.809,4.809,0,0,1-2.112-1.3,3.708,3.708,0,0,1-.893-2.664,4.175,4.175,0,0,1,.836-2.565,5.389,5.389,0,0,1,2.439-1.743,10.43,10.43,0,0,1,3.786-.623,14.854,14.854,0,0,1,3.218.355,8.993,8.993,0,0,1,2.65.977l-1.474,3.146a8.81,8.81,0,0,0-4.394-1.134,4.484,4.484,0,0,0-2.127.4,1.168,1.168,0,0,0-.709,1.021,1.012,1.012,0,0,0,.766.991,13.545,13.545,0,0,0,2.439.538,26.633,26.633,0,0,1,3.062.666,4.6,4.6,0,0,1,2.069,1.291,3.657,3.657,0,0,1,.879,2.606,4.022,4.022,0,0,1-.851,2.523,5.422,5.422,0,0,1-2.481,1.715,11.065,11.065,0,0,1-3.87.609A14.845,14.845,0,0,1,115.776,1094.745Z" transform="translate(-51.644 -1075.144)"/>
        <path id="Path_66" data-name="Path 66" d="M137.474,1094.628a4.553,4.553,0,0,1-1.6.722,8.117,8.117,0,0,1-2,.241,5.94,5.94,0,0,1-4.211-1.388,5.317,5.317,0,0,1-1.489-4.083v-6.264h-2.352v-3.4h2.352v-3.714H132.6v3.714h3.8v3.4h-3.8v6.209a2.078,2.078,0,0,0,.5,1.487,1.837,1.837,0,0,0,1.4.524,2.845,2.845,0,0,0,1.786-.566Z" transform="translate(-49.866 -1075.523)"/>
        <path id="Path_67" data-name="Path 67" d="M162.345,1081.2a6.87,6.87,0,0,1,1.687,5.059v8.731h-4.423v-8.05a4.135,4.135,0,0,0-.752-2.708,2.644,2.644,0,0,0-2.141-.893,3.152,3.152,0,0,0-2.466,1.006,4.335,4.335,0,0,0-.908,2.99v7.654h-4.423v-8.05q0-3.6-2.893-3.6a3.118,3.118,0,0,0-2.438,1.006,4.335,4.335,0,0,0-.908,2.99v7.654h-4.424v-15.25h4.225v1.758a5.592,5.592,0,0,1,2.084-1.474,7,7,0,0,1,2.708-.51,6.559,6.559,0,0,1,2.92.638,5.186,5.186,0,0,1,2.1,1.856,6.263,6.263,0,0,1,2.367-1.842,7.473,7.473,0,0,1,3.134-.651A6.153,6.153,0,0,1,162.345,1081.2Z" transform="translate(-48.156 -1075.144)"/>
        <path id="Path_68" data-name="Path 68" d="M179.55,1088.607H168.011a3.586,3.586,0,0,0,1.474,2.239,4.88,4.88,0,0,0,2.891.822,5.849,5.849,0,0,0,2.112-.354,5.113,5.113,0,0,0,1.715-1.12l2.353,2.551a7.911,7.911,0,0,1-6.295,2.466,9.958,9.958,0,0,1-4.565-1.006,7.381,7.381,0,0,1-3.062-2.792,7.7,7.7,0,0,1-1.077-4.053,7.8,7.8,0,0,1,1.064-4.04,7.457,7.457,0,0,1,2.92-2.805,9.04,9.04,0,0,1,8.208-.042,7.027,7.027,0,0,1,2.849,2.763,8.234,8.234,0,0,1,1.035,4.181Q179.635,1087.5,179.55,1088.607Zm-10.349-4.9a3.622,3.622,0,0,0-1.247,2.324h7.513a3.656,3.656,0,0,0-1.248-2.31,3.727,3.727,0,0,0-2.494-.865A3.81,3.81,0,0,0,169.2,1083.7Z" transform="translate(-44.678 -1075.144)"/>
        <path id="Path_69" data-name="Path 69" d="M194.134,1081.209a6.746,6.746,0,0,1,1.744,5.046v8.731h-4.423v-8.05a3.978,3.978,0,0,0-.794-2.708,2.913,2.913,0,0,0-2.3-.893,3.516,3.516,0,0,0-2.665,1.035,4.279,4.279,0,0,0-.992,3.075v7.54h-4.424v-15.25h4.225v1.787a5.877,5.877,0,0,1,2.183-1.489,7.623,7.623,0,0,1,2.864-.524A6.282,6.282,0,0,1,194.134,1081.209Z" transform="translate(-42.379 -1075.144)"/>
        <path id="Path_70" data-name="Path 70" d="M207.565,1094.628a4.543,4.543,0,0,1-1.6.722,8.117,8.117,0,0,1-2,.241,5.942,5.942,0,0,1-4.211-1.388,5.317,5.317,0,0,1-1.489-4.083v-6.264h-2.352v-3.4h2.352v-3.714h4.424v3.714h3.8v3.4h-3.8v6.209a2.078,2.078,0,0,0,.5,1.487,1.837,1.837,0,0,0,1.4.524,2.843,2.843,0,0,0,1.786-.566Z" transform="translate(-40.23 -1075.523)"/>
        <path id="Path_71" data-name="Path 71" d="M227.574,1095.512l-.028-14.457-7.173,12.047h-1.3l-7.173-11.962v14.371h-2.722V1075.67H211.5l8.279,13.946,8.166-13.946h2.325l.028,19.842Z" transform="translate(-38.407 -1075.67)"/>
        <path id="Path_72" data-name="Path 72" d="M241.642,1081.314a5.908,5.908,0,0,1,1.658,4.563v9.071h-2.58v-1.984a4.3,4.3,0,0,1-1.943,1.6,7.412,7.412,0,0,1-2.99.553,6.258,6.258,0,0,1-4.04-1.219,3.908,3.908,0,0,1-1.517-3.2,3.949,3.949,0,0,1,1.446-3.19,7.139,7.139,0,0,1,4.593-1.2h4.31v-.539a3.467,3.467,0,0,0-1.02-2.692,4.3,4.3,0,0,0-3.005-.936,7.974,7.974,0,0,0-2.609.439,6.732,6.732,0,0,0-2.154,1.177l-1.134-2.041a8.243,8.243,0,0,1,2.779-1.432,11.654,11.654,0,0,1,3.431-.5A6.8,6.8,0,0,1,241.642,1081.314Zm-2.707,11.012a3.978,3.978,0,0,0,1.644-1.969v-2.1h-4.2q-3.46,0-3.459,2.324a2.1,2.1,0,0,0,.879,1.785,4.013,4.013,0,0,0,2.439.653A5.063,5.063,0,0,0,238.935,1092.326Z" transform="translate(-35.512 -1075.106)"/>
        <path id="Path_73" data-name="Path 73" d="M256.227,1080.747a6.929,6.929,0,0,1,2.707,2.692,8.674,8.674,0,0,1,0,8.008,6.9,6.9,0,0,1-2.707,2.708,7.9,7.9,0,0,1-3.913.963,6.976,6.976,0,0,1-2.963-.623,6.173,6.173,0,0,1-2.282-1.814v7.766h-2.722v-20.521h2.608v2.381a5.788,5.788,0,0,1,2.3-1.885,7.251,7.251,0,0,1,3.062-.638A7.9,7.9,0,0,1,256.227,1080.747Zm-1.545,11.324a4.807,4.807,0,0,0,1.814-1.87,6.063,6.063,0,0,0,0-5.528,4.714,4.714,0,0,0-1.814-1.857,5.166,5.166,0,0,0-2.595-.652,5.015,5.015,0,0,0-2.566.667,4.817,4.817,0,0,0-1.814,1.856,5.53,5.53,0,0,0-.667,2.75,5.721,5.721,0,0,0,.652,2.765,4.673,4.673,0,0,0,1.815,1.87,5.363,5.363,0,0,0,5.174,0Z" transform="translate(-33.572 -1075.106)"/>
      </g>
      <text id="Barbados" transform="translate(-4 22.993)" font-size="26" font-family="Montserrat-Bold, Montserrat" font-weight="700"><tspan x="0" y="25">BARBADOS</tspan></text>
    </g>
  </g>
</svg>
