<?xml version="1.0" encoding="UTF-8"?><svg id="Layer_2" xmlns="http://www.w3.org/2000/svg" width="276.94" height="135.23" viewBox="0 0 276.94 135.23"><defs><style>.cls-1{fill:#fff;}</style></defs><g id="Layer_1-2"><g><path class="cls-1" d="M82.37,110.41c-1.17,1.38-2.48,2.59-3.93,3.62-1.24,.96-2.76,1.81-4.55,2.53-1.79,.72-3.79,1.09-6,1.09-1.93,0-3.65-.23-5.17-.67-1.52-.45-2.74-1.22-3.67-2.33-.93-1.1-1.55-2.6-1.86-4.5-.31-1.9-.19-4.29,.36-7.18l3.62-20.47c.48-2.89,1.5-5.32,3.05-7.29,1.55-1.96,3.38-3.57,5.48-4.81,2.1-1.24,4.36-2.12,6.77-2.64s4.76-.77,7.03-.77c2.89,0,5.46,.05,7.7,.15,2.24,.1,4.15,.22,5.74,.36,1.79,.21,3.38,.38,4.76,.52l.62,.72-9.1,51.79c-.55,2.9-1.57,5.29-3.05,7.18-1.48,1.9-3.26,3.39-5.32,4.5-2.07,1.1-4.27,1.88-6.62,2.33-2.34,.45-4.65,.67-6.93,.67s-4.26-.05-6.15-.15c-1.89-.1-3.53-.22-4.91-.36-1.65-.14-3.17-.31-4.55-.52l1.76-10.13,.83-.72c1.04,.21,2.17,.38,3.41,.52,1.1,.14,2.36,.26,3.77,.36,1.41,.1,2.95,.15,4.6,.15,1.45,0,2.81-.09,4.08-.26,1.27-.17,2.39-.53,3.36-1.09,.96-.55,1.79-1.38,2.48-2.48,.69-1.1,1.21-2.59,1.55-4.45l1.24-5.69h-.41Zm4.14-32.56h-2.07c-1.45,0-2.81,.09-4.08,.26-1.28,.17-2.4,.53-3.36,1.09-.96,.55-1.81,1.38-2.53,2.48s-1.22,2.58-1.5,4.44l-2.79,15.82c-.41,2.21-.31,3.65,.31,4.34,.62,.69,1.72,1.03,3.31,1.03,1.79,0,3.5-.5,5.12-1.5,1.62-1,3.36-2.4,5.22-4.19l4.14-23.67c-.69-.07-1.27-.1-1.76-.1"/><path class="cls-1" d="M119.17,96.67l-.41,1.86c-.35,1.86-.35,3.34,0,4.45,.34,1.1,.9,1.93,1.65,2.48,.76,.55,1.74,.91,2.95,1.09,1.21,.17,2.53,.26,3.98,.26,1.58,0,3.19-.05,4.81-.15,1.62-.1,3.05-.22,4.29-.36,1.45-.14,2.83-.31,4.14-.52l.62,.72-1.76,10.13c-1.65,.21-3.41,.38-5.27,.52-1.58,.14-3.41,.26-5.48,.36-2.07,.1-4.17,.15-6.31,.15-2.27,0-4.51-.22-6.72-.67-2.2-.45-4.14-1.22-5.79-2.33-1.65-1.1-2.91-2.6-3.77-4.5-.86-1.9-1.02-4.29-.46-7.18l3.51-19.95c.55-3.24,1.6-5.89,3.15-7.96,1.55-2.07,3.38-3.71,5.48-4.91,2.1-1.21,4.36-2.03,6.77-2.48,2.41-.45,4.76-.67,7.03-.67s4.55,.22,6.82,.67c2.27,.45,4.24,1.27,5.89,2.48,1.65,1.21,2.89,2.84,3.72,4.91,.83,2.07,.96,4.72,.41,7.96-.55,2.9-1.57,5.27-3.05,7.13-1.48,1.86-3.22,3.34-5.22,4.45-2,1.1-4.17,1.86-6.51,2.27-2.34,.41-4.65,.62-6.93,.62-2.69,0-5.2-.28-7.55-.83m6.36-18.56c-1.07,.52-1.91,1.19-2.53,2.02-.62,.83-1.05,1.76-1.29,2.79-.24,1.03-.46,2.1-.67,3.2l-.1,.52c1.31,.14,2.76,.28,4.34,.41,1.59,.14,3.1,.1,4.55-.1,1.45-.21,2.69-.64,3.72-1.29,1.03-.65,1.72-1.71,2.07-3.15,.35-1.79-.02-3.1-1.08-3.93-1.07-.83-2.64-1.24-4.7-1.24-1.79,0-3.22,.26-4.29,.77"/><path class="cls-1" d="M183.57,82.71c.41-2.2,.22-3.65-.57-4.34-.79-.69-1.98-1.03-3.57-1.03-1.79,0-3.5,.5-5.12,1.5-1.62,1-3.36,2.39-5.22,4.19l-5.89,33.6h-12.41l8.48-48.59h11.68l.62,.72-1.14,5.48h.41c1.17-1.31,2.48-2.51,3.93-3.62,1.24-.9,2.76-1.72,4.55-2.48,1.79-.76,3.79-1.14,5.99-1.14,1.93,0,3.69,.23,5.27,.67,1.58,.45,2.88,1.22,3.88,2.33,1,1.1,1.65,2.6,1.96,4.5,.31,1.9,.22,4.29-.26,7.19l-6.1,34.94h-12.41l5.89-33.91Z"/><path class="cls-1" d="M216.6,106.23c.52,.72,1.74,1.09,3.67,1.09,.83,0,1.65-.02,2.48-.05,.83-.03,1.59-.09,2.27-.15,.76-.07,1.48-.14,2.17-.21l.62,.72-1.55,8.99c-.76,.21-1.69,.38-2.79,.52-.97,.14-2.1,.26-3.41,.36-1.31,.1-2.76,.15-4.34,.15-4.69,0-8.08-1.12-10.18-3.36-2.1-2.24-2.71-5.94-1.81-11.11l4.65-25.84h-5.17l1.55-9.3h5.17l1.86-10.34h12.41l-1.86,10.34h11.37l-1.55,9.3h-11.37l-4.65,25.84c-.21,1.31-.05,2.33,.47,3.05"/><path class="cls-1" d="M247.35,96.67l-.41,1.86c-.34,1.86-.34,3.34,0,4.45,.34,1.1,.9,1.93,1.65,2.48,.76,.55,1.74,.91,2.95,1.09,1.21,.17,2.53,.26,3.98,.26,1.59,0,3.19-.05,4.81-.15,1.62-.1,3.05-.22,4.29-.36,1.45-.14,2.83-.31,4.14-.52l.62,.72-1.76,10.13c-1.65,.21-3.41,.38-5.27,.52-1.58,.14-3.41,.26-5.48,.36-2.07,.1-4.17,.15-6.31,.15-2.27,0-4.51-.22-6.72-.67-2.2-.45-4.14-1.22-5.79-2.33-1.65-1.1-2.91-2.6-3.77-4.5-.86-1.9-1.02-4.29-.46-7.18l3.51-19.95c.55-3.24,1.6-5.89,3.15-7.96,1.55-2.07,3.38-3.71,5.48-4.91,2.1-1.21,4.36-2.03,6.77-2.48,2.41-.45,4.76-.67,7.03-.67s4.55,.22,6.82,.67c2.27,.45,4.24,1.27,5.89,2.48,1.65,1.21,2.89,2.84,3.72,4.91,.83,2.07,.97,4.72,.41,7.96-.55,2.9-1.57,5.27-3.05,7.13-1.48,1.86-3.22,3.34-5.22,4.45-2,1.1-4.17,1.86-6.51,2.27-2.34,.41-4.65,.62-6.93,.62-2.69,0-5.2-.28-7.55-.83m6.36-18.56c-1.07,.52-1.91,1.19-2.53,2.02-.62,.83-1.05,1.76-1.29,2.79-.24,1.03-.47,2.1-.67,3.2l-.1,.52c1.31,.14,2.76,.28,4.34,.41,1.59,.14,3.1,.1,4.55-.1,1.45-.21,2.69-.64,3.72-1.29,1.03-.65,1.72-1.71,2.07-3.15,.34-1.79-.02-3.1-1.09-3.93-1.07-.83-2.64-1.24-4.7-1.24-1.79,0-3.22,.26-4.29,.77"/><path class="cls-1" d="M24.07,13.72l.43,.51-.79,3.83h.29c.82-.91,1.73-1.76,2.74-2.53,.87-.63,1.93-1.2,3.18-1.73,1.25-.53,2.65-.79,4.19-.79,1.35,0,2.55,.16,3.61,.47,1.06,.31,1.91,.85,2.56,1.62,.65,.77,1.07,1.82,1.26,3.14,.19,1.32,.12,3-.22,5.02l-2.53,14.29c-.39,2.02-1.11,3.72-2.17,5.09-1.06,1.37-2.32,2.49-3.79,3.36-1.47,.87-3.04,1.48-4.73,1.84-1.68,.36-3.32,.54-4.91,.54-1.01,0-1.84-.01-2.49-.04-.65-.02-1.38-.06-2.2-.11l-2.02,11.7H7.82L15.91,13.72h8.16Zm-2.96,27.07h1.44c1.01,0,1.96-.06,2.85-.18,.89-.12,1.67-.37,2.35-.76,.67-.39,1.25-.96,1.73-1.73,.48-.77,.84-1.8,1.08-3.1l1.95-11.05c.29-1.54,.22-2.55-.22-3.03-.43-.48-1.2-.72-2.31-.72-1.25,0-2.45,.34-3.61,1.01-1.16,.67-2.36,1.66-3.61,2.96l-2.96,16.53c.53,.05,.96,.07,1.3,.07"/><path class="cls-1" d="M62.15,22.02c-1.85,.24-3.81,1.08-5.88,2.53l-4.04,23.1h-8.66l5.92-33.93h8.16l.43,.5-.79,3.83h.29c-.14,0,.06-.29,.61-.87,.55-.58,1.36-1.19,2.42-1.84,1.06-.65,2.32-1.23,3.79-1.73,1.47-.51,3.04-.71,4.73-.61l-1.44,8.16-.58,.51c-1.44,0-3.09,.12-4.94,.36"/><path class="cls-1" d="M76.62,47.64h-8.66l5.92-33.93h8.66l-5.92,33.93Zm-1.8-38.98l1.52-8.66h8.66l-1.52,8.66h-8.66Z"/><path class="cls-1" d="M131.84,13.46c1.11,.31,2.01,.85,2.71,1.62,.7,.77,1.16,1.82,1.37,3.14,.22,1.32,.16,3-.18,5.02l-4.26,24.4h-8.66l4.11-23.68c.29-1.54,.16-2.55-.4-3.03-.55-.48-1.38-.72-2.49-.72-1.25,0-2.44,.35-3.57,1.05-1.13,.7-2.35,1.67-3.65,2.92l-4.11,23.46h-8.66l4.11-23.68c.29-1.54,.16-2.55-.4-3.03-.55-.48-1.38-.72-2.49-.72-1.25,0-2.44,.35-3.57,1.05-1.13,.7-2.35,1.67-3.65,2.92l-4.11,23.46h-8.66l5.92-33.93h8.16l.43,.51-.79,3.83h.29c.82-.91,1.73-1.76,2.74-2.53,.87-.63,1.93-1.2,3.18-1.73,1.25-.53,2.65-.79,4.19-.79,2.07,0,3.8,.39,5.2,1.16,1.4,.77,2.26,2.19,2.6,4.26,.43-.43,1.01-.96,1.73-1.59,.72-.62,1.55-1.23,2.49-1.8,.94-.58,1.99-1.06,3.14-1.44,1.15-.38,2.36-.58,3.61-.58,1.35,0,2.57,.16,3.68,.47"/><path class="cls-1" d="M150.54,33.71l-.29,1.3c-.24,1.3-.24,2.33,0,3.1,.24,.77,.63,1.35,1.15,1.73,.53,.38,1.22,.64,2.06,.76,.84,.12,1.77,.18,2.78,.18,1.11,0,2.23-.04,3.36-.11,1.13-.07,2.13-.16,3-.25,1.01-.1,1.97-.22,2.89-.36l.43,.51-1.23,7.08c-1.15,.14-2.38,.26-3.68,.36-1.11,.1-2.38,.18-3.83,.25-1.44,.07-2.91,.11-4.4,.11-1.59,0-3.15-.16-4.69-.47-1.54-.31-2.89-.86-4.04-1.62s-2.03-1.82-2.64-3.14c-.6-1.32-.71-3-.32-5.02l2.45-13.93c.38-2.26,1.12-4.11,2.2-5.56,1.08-1.44,2.36-2.59,3.83-3.43,1.47-.84,3.04-1.42,4.73-1.73,1.68-.31,3.32-.47,4.91-.47s3.18,.16,4.76,.47c1.59,.31,2.96,.89,4.11,1.73,1.15,.84,2.02,1.99,2.6,3.43,.58,1.44,.67,3.3,.29,5.56-.39,2.02-1.09,3.68-2.13,4.98-1.04,1.3-2.25,2.33-3.64,3.11-1.4,.77-2.91,1.3-4.55,1.59-1.64,.29-3.25,.43-4.84,.43-1.88,0-3.63-.19-5.27-.58m4.44-12.96c-.75,.36-1.34,.83-1.77,1.41-.43,.58-.73,1.23-.9,1.95-.17,.72-.32,1.47-.47,2.24l-.07,.36c.92,.1,1.92,.19,3.03,.29,1.11,.1,2.17,.07,3.18-.07,1.01-.14,1.88-.44,2.6-.9,.72-.46,1.2-1.19,1.44-2.2,.24-1.25-.01-2.17-.76-2.74-.75-.58-1.84-.87-3.28-.87-1.25,0-2.25,.18-3,.54"/><path class="cls-1" d="M192.66,22.02c-1.85,.24-3.81,1.08-5.88,2.53l-4.04,23.1h-8.66l5.92-33.93h8.16l.43,.5-.79,3.83h.29c-.14,0,.06-.29,.61-.87,.55-.58,1.36-1.19,2.42-1.84,1.06-.65,2.32-1.23,3.79-1.73,1.47-.51,3.04-.71,4.73-.61l-1.44,8.16-.58,.51c-1.44,0-3.09,.12-4.94,.36"/><path class="cls-1" d="M203.49,18.62c1.08-1.44,2.36-2.59,3.83-3.43,1.47-.84,3.04-1.42,4.73-1.73,1.68-.31,3.32-.47,4.91-.47s3.18,.16,4.76,.47c1.59,.31,2.96,.89,4.11,1.73,1.15,.84,2.02,1.99,2.6,3.43,.58,1.44,.67,3.3,.29,5.56l-2.31,12.99c-.39,2.26-1.12,4.11-2.2,5.56-1.08,1.45-2.36,2.59-3.83,3.43-1.47,.84-3.04,1.42-4.73,1.73-1.68,.31-3.32,.47-4.91,.47s-3.18-.16-4.76-.47c-1.59-.31-2.96-.89-4.12-1.73-1.15-.84-2.02-1.98-2.6-3.43-.58-1.44-.67-3.3-.29-5.56l2.31-12.99c.39-2.26,1.12-4.11,2.2-5.56m16.5,4.87c0-.65-.15-1.21-.43-1.7-.29-.48-.73-.87-1.33-1.16-.6-.29-1.43-.43-2.49-.43s-1.95,.14-2.67,.43c-.72,.29-1.31,.67-1.77,1.16-.46,.48-.81,1.05-1.05,1.7-.24,.65-.43,1.36-.58,2.13l-1.73,10.11c-.29,1.54-.22,2.83,.22,3.86,.43,1.03,1.71,1.55,3.83,1.55s3.58-.52,4.4-1.55c.82-1.04,1.37-2.32,1.66-3.86l1.73-10.11c.14-.77,.22-1.48,.22-2.13"/><polygon class="cls-1" points="8.11 112.31 0 112.31 7.84 67.72 15.95 67.72 8.11 112.31"/><path class="cls-1" d="M21.45,85.25c1.01-1.28,2.21-2.33,3.58-3.14,1.37-.81,2.85-1.39,4.42-1.72,1.58-.34,3.11-.51,4.6-.51,1.89,0,3.57,.03,5.03,.1,1.46,.07,2.71,.15,3.75,.24,1.17,.14,2.21,.25,3.11,.34l.4,.47-5.47,31.28h-7.64l-.41-.47,.74-3.58h-.27c-.77,.9-1.62,1.69-2.57,2.36-.81,.63-1.8,1.18-2.97,1.66-1.17,.47-2.48,.71-3.92,.71-1.26,0-2.39-.15-3.38-.44s-1.79-.8-2.4-1.52c-.61-.72-1.01-1.7-1.22-2.94-.2-1.24-.12-2.8,.24-4.7l2.36-13.38c.32-1.89,.98-3.48,1.99-4.76m14.56,1.72h-1.35c-.95,0-1.83,.06-2.67,.17-.83,.11-1.57,.35-2.2,.71-.63,.36-1.18,.9-1.65,1.62-.47,.72-.8,1.69-.98,2.91l-1.82,10.34c-.27,1.44-.2,2.39,.2,2.84,.41,.45,1.13,.68,2.16,.68,1.17,0,2.29-.33,3.35-.98,1.06-.65,2.2-1.56,3.41-2.74l2.7-15.47c-.45-.04-.83-.07-1.15-.07"/></g></g></svg>